<?xml version="1.0" encoding="UTF-8" standalone="no"?>
<!-- Created with Inkscape (http://www.inkscape.org/) -->
<!-- Last edited by Jonadab the Unsightly One, 2017-Nov-15 -->

<svg
   xmlns:dc="http://purl.org/dc/elements/1.1/"
   xmlns:cc="http://creativecommons.org/ns#"
   xmlns:rdf="http://www.w3.org/1999/02/22-rdf-syntax-ns#"
   xmlns:svg="http://www.w3.org/2000/svg"
   xmlns="http://www.w3.org/2000/svg"
   xmlns:xlink="http://www.w3.org/1999/xlink"
   xmlns:sodipodi="http://sodipodi.sourceforge.net/DTD/sodipodi-0.dtd"
   xmlns:inkscape="http://www.inkscape.org/namespaces/inkscape"
   width="128"
   height="128"
   id="svg2"
   version="1.1"
   inkscape:version="0.47 r22583"
   sodipodi:docname="dlb.svg"
   inkscape:export-filename="/home/nathan/git/fourk/dist/common/dlb16.png"
   inkscape:export-xdpi="11.25"
   inkscape:export-ydpi="11.25">
  <defs
     id="defs4">
    <inkscape:perspective
       sodipodi:type="inkscape:persp3d"
       inkscape:vp_x="0 : 526.18109 : 1"
       inkscape:vp_y="0 : 1000 : 0"
       inkscape:vp_z="744.09448 : 526.18109 : 1"
       inkscape:persp3d-origin="372.04724 : 350.78739 : 1"
       id="perspective10" />
    <inkscape:perspective
       id="perspective3598"
       inkscape:persp3d-origin="0.5 : 0.33333333 : 1"
       inkscape:vp_z="1 : 0.5 : 1"
       inkscape:vp_y="0 : 1000 : 0"
       inkscape:vp_x="0 : 0.5 : 1"
       sodipodi:type="inkscape:persp3d" />
    <inkscape:perspective
       id="perspective3620"
       inkscape:persp3d-origin="0.5 : 0.33333333 : 1"
       inkscape:vp_z="1 : 0.5 : 1"
       inkscape:vp_y="0 : 1000 : 0"
       inkscape:vp_x="0 : 0.5 : 1"
       sodipodi:type="inkscape:persp3d" />
    <inkscape:perspective
       id="perspective3661"
       inkscape:persp3d-origin="0.5 : 0.33333333 : 1"
       inkscape:vp_z="1 : 0.5 : 1"
       inkscape:vp_y="0 : 1000 : 0"
       inkscape:vp_x="0 : 0.5 : 1"
       sodipodi:type="inkscape:persp3d" />
    <inkscape:perspective
       id="perspective3692"
       inkscape:persp3d-origin="0.5 : 0.33333333 : 1"
       inkscape:vp_z="1 : 0.5 : 1"
       inkscape:vp_y="0 : 1000 : 0"
       inkscape:vp_x="0 : 0.5 : 1"
       sodipodi:type="inkscape:persp3d" />
    <inkscape:perspective
       id="perspective3717"
       inkscape:persp3d-origin="0.5 : 0.33333333 : 1"
       inkscape:vp_z="1 : 0.5 : 1"
       inkscape:vp_y="0 : 1000 : 0"
       inkscape:vp_x="0 : 0.5 : 1"
       sodipodi:type="inkscape:persp3d" />
    <inkscape:perspective
       id="perspective3922"
       inkscape:persp3d-origin="0.5 : 0.33333333 : 1"
       inkscape:vp_z="1 : 0.5 : 1"
       inkscape:vp_y="0 : 1000 : 0"
       inkscape:vp_x="0 : 0.5 : 1"
       sodipodi:type="inkscape:persp3d" />
    <inkscape:perspective
       id="perspective4249"
       inkscape:persp3d-origin="0.5 : 0.33333333 : 1"
       inkscape:vp_z="1 : 0.5 : 1"
       inkscape:vp_y="0 : 1000 : 0"
       inkscape:vp_x="0 : 0.5 : 1"
       sodipodi:type="inkscape:persp3d" />
    <radialGradient
       id="radialGradient2279"
       gradientUnits="userSpaceOnUse"
       cy="792.20001"
       cx="279.54999"
       gradientTransform="matrix(0,-0.74066,1.2194,3.7988e-8,-453.35,791.8)"
       r="101.69"
       inkscape:collect="always">
      <stop
         id="stop1401"
         style="stop-color:#000000;stop-opacity:.67843"
         offset="0" />
      <stop
         id="stop1403"
         style="stop-color:#000000;stop-opacity:.32941"
         offset="0.57" />
      <stop
         id="stop1402"
         style="stop-color:#000000;stop-opacity:0"
         offset="1" />
    </radialGradient>
    <linearGradient
       id="linearGradient2281"
       y2="852.5"
       xlink:href="#linearGradient7313"
       gradientUnits="userSpaceOnUse"
       x2="480.66"
       gradientTransform="translate(70.109,-289.7)"
       y1="956.46002"
       x1="568.81"
       inkscape:collect="always" />
    <linearGradient
       id="linearGradient7313"
       inkscape:collect="always">
      <stop
         id="stop7315"
         style="stop-color:#ffdab9"
         offset="0" />
      <stop
         id="stop7317"
         style="stop-color:#ffdab9;stop-opacity:0"
         offset="1" />
    </linearGradient>
    <linearGradient
       id="linearGradient2283"
       y2="858.73999"
       gradientUnits="userSpaceOnUse"
       x2="392.85001"
       gradientTransform="translate(70.109,-289.7)"
       y1="890.97998"
       x1="513.16998"
       inkscape:collect="always">
      <stop
         id="stop7325"
         style="stop-color:#945324"
         offset="0" />
      <stop
         id="stop7327"
         style="stop-color:#945324;stop-opacity:0"
         offset="1" />
    </linearGradient>
    <linearGradient
       id="linearGradient2285"
       y2="858.21997"
       xlink:href="#linearGradient7313"
       gradientUnits="userSpaceOnUse"
       x2="376.32999"
       gradientTransform="matrix(0.90582,0,0,0.90582,106.8,-209.28)"
       y1="980.29999"
       x1="282.38"
       inkscape:collect="always" />
    <linearGradient
       id="linearGradient2287"
       y2="815.89001"
       xlink:href="#linearGradient7313"
       gradientUnits="userSpaceOnUse"
       x2="545.46997"
       gradientTransform="translate(70.109,-289.7)"
       y1="913.77002"
       x1="583.41998"
       inkscape:collect="always" />
    <linearGradient
       id="linearGradient2289"
       y2="825.73999"
       xlink:href="#linearGradient7313"
       gradientUnits="userSpaceOnUse"
       x2="361.04001"
       gradientTransform="translate(68.786,-290.03)"
       y1="943.39001"
       x1="296.04001"
       inkscape:collect="always" />
    <inkscape:perspective
       id="perspective4397"
       inkscape:persp3d-origin="0.5 : 0.33333333 : 1"
       inkscape:vp_z="1 : 0.5 : 1"
       inkscape:vp_y="0 : 1000 : 0"
       inkscape:vp_x="0 : 0.5 : 1"
       sodipodi:type="inkscape:persp3d" />
    <filter
       id="filter8058"
       inkscape:collect="always"
       color-interpolation-filters="sRGB">
      <feGaussianBlur
         id="feGaussianBlur8060"
         stdDeviation="5.7214287"
         inkscape:collect="always" />
    </filter>
    <filter
       id="filter8119"
       inkscape:collect="always"
       color-interpolation-filters="sRGB">
      <feGaussianBlur
         id="feGaussianBlur8121"
         stdDeviation="6.2905517"
         inkscape:collect="always" />
    </filter>
    <filter
       id="filter8052"
       inkscape:collect="always"
       color-interpolation-filters="sRGB">
      <feGaussianBlur
         id="feGaussianBlur8054"
         stdDeviation="6.0309222"
         inkscape:collect="always" />
    </filter>
    <radialGradient
       inkscape:collect="always"
       xlink:href="#radialGradient2279"
       id="radialGradient4514"
       gradientUnits="userSpaceOnUse"
       gradientTransform="matrix(0,-0.74066,1.2194,3.7988e-8,-453.35,791.8)"
       cx="279.54999"
       cy="792.20001"
       r="101.69" />
    <linearGradient
       inkscape:collect="always"
       xlink:href="#linearGradient7313"
       id="linearGradient4516"
       gradientUnits="userSpaceOnUse"
       gradientTransform="translate(70.109,-289.7)"
       x1="568.81"
       y1="956.46002"
       x2="480.66"
       y2="852.5" />
    <linearGradient
       inkscape:collect="always"
       xlink:href="#linearGradient2283"
       id="linearGradient4518"
       gradientUnits="userSpaceOnUse"
       gradientTransform="translate(70.109,-289.7)"
       x1="513.16998"
       y1="890.97998"
       x2="392.85001"
       y2="858.73999" />
    <linearGradient
       inkscape:collect="always"
       xlink:href="#linearGradient7313"
       id="linearGradient4520"
       gradientUnits="userSpaceOnUse"
       gradientTransform="matrix(0.90582,0,0,0.90582,106.8,-209.28)"
       x1="282.38"
       y1="980.29999"
       x2="376.32999"
       y2="858.21997" />
    <linearGradient
       inkscape:collect="always"
       xlink:href="#linearGradient7313"
       id="linearGradient4522"
       gradientUnits="userSpaceOnUse"
       gradientTransform="translate(70.109,-289.7)"
       x1="583.41998"
       y1="913.77002"
       x2="545.46997"
       y2="815.89001" />
    <linearGradient
       inkscape:collect="always"
       xlink:href="#linearGradient7313"
       id="linearGradient4524"
       gradientUnits="userSpaceOnUse"
       gradientTransform="translate(68.786,-290.03)"
       x1="296.04001"
       y1="943.39001"
       x2="361.04001"
       y2="825.73999" />
    <linearGradient
       inkscape:collect="always"
       xlink:href="#linearGradient7313"
       id="linearGradient4527"
       gradientUnits="userSpaceOnUse"
       gradientTransform="matrix(0.43964978,0,0,0.43964978,-133.77617,641.11356)"
       x1="296.04001"
       y1="943.39001"
       x2="361.04001"
       y2="825.73999" />
    <linearGradient
       inkscape:collect="always"
       xlink:href="#linearGradient7313"
       id="linearGradient4532"
       gradientUnits="userSpaceOnUse"
       gradientTransform="matrix(0.43964978,0,0,0.43964978,-133.19451,641.25865)"
       x1="583.41998"
       y1="913.77002"
       x2="545.46997"
       y2="815.89001" />
    <linearGradient
       inkscape:collect="always"
       xlink:href="#linearGradient7313"
       id="linearGradient4535"
       gradientUnits="userSpaceOnUse"
       gradientTransform="matrix(0.39824356,0,0,0.39824356,-117.06332,676.61528)"
       x1="282.38"
       y1="980.29999"
       x2="376.32999"
       y2="858.21997" />
    <linearGradient
       inkscape:collect="always"
       xlink:href="#linearGradient2283"
       id="linearGradient4539"
       gradientUnits="userSpaceOnUse"
       gradientTransform="matrix(0.43964978,0,0,0.43964978,-133.19451,641.25865)"
       x1="513.16998"
       y1="890.97998"
       x2="392.85001"
       y2="858.73999" />
    <linearGradient
       inkscape:collect="always"
       xlink:href="#linearGradient7313"
       id="linearGradient4543"
       gradientUnits="userSpaceOnUse"
       gradientTransform="matrix(0.43964978,0,0,0.43964978,-133.19451,641.25865)"
       x1="568.81"
       y1="956.46002"
       x2="480.66"
       y2="852.5" />
    <radialGradient
       inkscape:collect="always"
       xlink:href="#radialGradient2279"
       id="radialGradient4548"
       gradientUnits="userSpaceOnUse"
       gradientTransform="matrix(0,-0.32563101,0.53610894,1.6701416e-8,-363.33315,1116.7399)"
       cx="279.54999"
       cy="792.20001"
       r="101.69" />
  </defs>
  <sodipodi:namedview
     id="base"
     pagecolor="#ffffff"
     bordercolor="#666666"
     borderopacity="1.0"
     inkscape:pageopacity="0"
     inkscape:pageshadow="2"
     inkscape:zoom="3.6019176"
     inkscape:cx="60.166781"
     inkscape:cy="52.081178"
     inkscape:document-units="px"
     inkscape:current-layer="layer1"
     showgrid="false"
     inkscape:window-width="1201"
     inkscape:window-height="882"
     inkscape:window-x="41"
     inkscape:window-y="-1"
     inkscape:window-maximized="0" />
  <metadata
     id="metadata7">
    <rdf:RDF>
      <cc:Work
         rdf:about="">
        <dc:format>image/svg+xml</dc:format>
        <dc:type
           rdf:resource="http://purl.org/dc/dcmitype/StillImage" />
        <dc:title></dc:title>
      </cc:Work>
    </rdf:RDF>
  </metadata>
  <g
     inkscape:label="Layer 1"
     inkscape:groupmode="layer"
     id="layer1"
     transform="translate(0,-924.36218)">
    <path
       id="path2411"
       style="fill:#000000"
       sodipodi:type="inkscape:offset"
       d="m 461.96875,762.9375 c -0.81747,0.025 -1.62716,0.18886 -2.40625,0.4375 -37.1417,11.91159 -74.41243,22.73263 -112.375,30.09375 -1.44456,0.28069 -2.67132,0.97895 -3.71875,1.8125 -19.74905,11.76798 -29.30265,28.55686 -38.21875,44 -1.44423,2.49964 -1.53846,5.54552 -0.34375,8.125 1.19471,2.57952 3.59996,4.42859 6.40625,4.9375 10.5513,1.86403 20.45776,4.49201 30.25,7.46875 -0.2371,5.96505 -0.49669,11.92853 -1,17.875 -0.0769,0.88256 -0.0683,0.93602 0,0.15625 -0.13245,1.55769 -0.30812,3.16135 -0.46875,4.8125 -0.10377,1.02342 -0.094,1.04719 0,0.125 a 4.8018074,4.8018074 0 0 0 0,0.21875 c -0.0129,0.22757 -0.0252,0.64042 0,1.09375 0.005,0.0907 -0.009,0.11891 0,0.21875 l 0.0312,0 c 0.27986,3.93324 3.20257,7.32449 7.1875,8.03125 27.22077,4.80891 54.01579,11.88304 79.90625,21.40625 a 4.8018074,4.8018074 0 0 0 0.0312,0.0312 c 0.95656,0.34494 1.93155,0.36596 2.875,0.375 l 0,0.0937 c 0.11603,0.01 0.28465,-0.0369 0.40625,-0.0312 0.10064,-0.004 0.21323,0.0381 0.3125,0.0312 -0.6913,0.0477 -0.67594,0.0569 0.0625,0 l 0,-0.0937 c 0.82887,0.008 1.68179,0.0355 2.65625,-0.28125 37.14478,-11.91257 74.38411,-22.76446 112.34375,-30.125 4.08325,-0.79648 7.01546,-4.43272 7.09375,-8.5 l 0.0312,0 c 0.002,-0.0674 -0.001,-0.17257 0,-0.25 0.002,-0.14518 0.007,-0.2994 0,-0.46875 A 4.8018074,4.8018074 0 0 0 553,874.3125 c 0.0777,0.83049 0.0889,0.76604 0,-0.1875 -0.14775,-1.65812 -0.31426,-3.23465 -0.4375,-4.78125 a 4.8018074,4.8018074 0 0 0 0,-0.0312 c 0.0494,0.60171 0.0364,0.33078 0,-0.15625 -8.3e-4,-0.0105 8.3e-4,-0.0208 0,-0.0312 -0.12774,-1.60955 -0.26661,-3.22618 -0.375,-4.78125 0.0426,0.60264 0.0525,0.52794 0,-0.21875 -0.29439,-4.25033 -0.50574,-8.48054 -0.6875,-12.71875 11.41919,-2.81655 22.87595,-5.42047 34.40625,-7.65625 2.76878,-0.53446 5.15793,-2.39267 6.34375,-4.96875 1.1858,-2.57608 1.06067,-5.56299 -0.34375,-8.03125 a 4.8018074,4.8018074 0 0 0 -0.0312,-0.0312 C 581.13354,812.11401 567.85924,797.50784 549.65625,786.75 c -0.0202,-0.0119 -0.0423,-0.0194 -0.0625,-0.0312 -1.05985,-0.84761 -2.28782,-1.57333 -3.8125,-1.84375 -27.21389,-4.8077 -53.96391,-11.85773 -79.84375,-21.375 -0.01,-0.004 -0.0215,0.004 -0.0312,0 -0.9889,-0.36571 -2.04104,-0.50414 -3.09375,-0.5 -0.10699,4.2e-4 -0.20543,-0.0668 -0.3125,-0.0625 a 4.8018074,4.8018074 0 0 0 -0.0312,0.0312 c -0.007,-0.001 -0.0223,0.001 -0.0312,0 -0.12595,-0.017 0.0323,-0.0443 -0.4375,-0.0312 a 4.8018074,4.8018074 0 0 0 -0.0312,0 z"
       inkscape:original="M 462.125 767.75 C 461.75348 767.76138 461.38535 767.82449 461.03125 767.9375 C 423.80642 779.87575 386.34379 790.77064 348.09375 798.1875 C 347.23191 798.35496 346.49646 798.80381 345.9375 799.40625 C 327.31919 810.50045 318.32957 826.23186 309.40625 841.6875 C 308.7549 842.81484 308.70282 844.19359 309.25 845.375 C 309.79717 846.5564 310.87517 847.39268 312.15625 847.625 C 324.24225 849.76016 335.49845 852.74957 346.59375 856.25 C 346.36738 863.54377 345.95944 870.81947 345.34375 878.09375 C 345.33922 878.14572 345.3483 878.19803 345.34375 878.25 C 345.20561 879.87462 345.03291 881.50184 344.875 883.125 C 344.86978 883.17648 344.88025 883.22977 344.875 883.28125 C 344.86369 883.48031 344.85701 883.6793 344.875 883.875 C 344.95744 885.71719 346.28998 887.294 348.15625 887.625 C 375.63964 892.48031 402.70029 899.62224 428.875 909.25 C 429.40585 909.44143 429.95382 909.50658 430.5 909.46875 C 430.51014 909.46805 430.52112 909.46953 430.53125 909.46875 C 431.05229 909.51167 431.58172 909.47895 432.09375 909.3125 C 469.31859 897.37425 506.74994 886.4481 545 879.03125 C 546.90622 878.65942 548.23832 876.97473 548.21875 875.0625 C 548.22257 874.95724 548.22332 874.85612 548.21875 874.75 C 548.21295 874.68799 548.22453 874.62451 548.21875 874.5625 C 548.07469 872.94574 547.91016 871.33649 547.78125 869.71875 C 547.77614 869.65657 547.78634 869.59343 547.78125 869.53125 C 547.65373 867.92353 547.51836 866.29601 547.40625 864.6875 C 547.40111 864.61484 547.41136 864.54141 547.40625 864.46875 C 547.06202 859.49893 546.78238 854.53642 546.59375 849.5625 C 546.59111 849.48947 546.59636 849.41678 546.59375 849.34375 C 546.57262 848.77944 546.55029 848.22058 546.53125 847.65625 C 559.28009 844.44887 572.08813 841.53492 585 839.03125 C 586.26597 838.78688 587.33587 837.95246 587.875 836.78125 C 588.41413 835.61002 588.35638 834.24563 587.71875 833.125 C 577.2722 815.03105 564.64033 801.16232 547.15625 790.84375 C 546.58259 790.22344 545.82812 789.75171 544.9375 789.59375 C 517.45411 784.73844 490.42472 777.62774 464.25 768 C 463.75101 767.81346 463.21978 767.72847 462.6875 767.75 C 462.62448 767.75272 462.56253 767.77558 462.5 767.78125 C 462.37406 767.77277 462.25234 767.74646 462.125 767.75 z "
       transform="translate(70.109,-287.7)"
       inkscape:radius="4.8013272" />
    <path
       id="path2413"
       sodipodi:nodetypes="cccccsccccsc"
       style="fill:#cd853f"
       d="m 69.976882,978.79977 c -0.16267,0.009 -0.32534,0.0352 -0.479218,0.0835 -16.363765,5.24942 -32.837442,10.0416 -49.654046,13.29941 -0.888093,0.17586 -1.499206,0.99361 -1.415672,1.89491 1.103521,11.79581 1.147486,23.66631 0,35.44891 -0.05715,0.5892 0.189049,1.1695 0.650681,1.5388 0.461633,0.3737 1.081539,0.4836 1.644291,0.3034 16.368161,-5.2494 32.824252,-10.0548 49.640856,-13.3126 0.883696,-0.1759 1.494809,-0.9848 1.415673,-1.8861 -1.103521,-11.7914 -1.147486,-23.66638 0,-35.4446 0.04836,-0.5012 -0.123102,-0.998 -0.466029,-1.36731 -0.347324,-0.3693 -0.830938,-0.57154 -1.336536,-0.55835 z" />
    <path
       id="path2415"
       sodipodi:nodetypes="cscsccscsccc"
       style="fill:#bb7637"
       d="m 70.227483,978.79977 c -0.479218,0.022 -0.932058,0.23741 -1.248606,0.59792 -0.316547,0.36051 -0.470425,0.83534 -0.430856,1.31455 1.055159,11.809 1.200244,23.68396 0,35.44456 -0.09233,0.9189 0.536372,1.7498 1.446447,1.9125 12.081576,2.1323 23.978499,5.2714 35.484132,9.5052 0.56715,0.2066 1.20025,0.1055 1.67507,-0.2594 0.47482,-0.3693 0.72982,-0.954 0.67706,-1.552 -1.05516,-11.809 -1.20025,-23.6839 0,-35.4489 0.0923,-0.91448 -0.53637,-1.74981 -1.44205,-1.90808 -12.085975,-2.1367 -23.969709,-5.26261 -35.475344,-9.49644 -0.219824,-0.0791 -0.452839,-0.11871 -0.685853,-0.10991 z" />
    <path
       id="path2417"
       style="fill:url(#radialGradient4548)"
       d="m 69.976882,978.79977 c -0.16267,0.009 -0.32534,0.0352 -0.479218,0.0835 -16.363765,5.24942 -32.837442,10.0416 -49.654046,13.29941 -0.888093,0.17586 -1.499206,0.99361 -1.415672,1.89491 1.103521,11.79581 1.147486,23.66631 0,35.44891 -0.05715,0.5892 0.184653,1.1695 0.646285,1.5388 0.461632,0.3693 1.085935,0.4836 1.648687,0.3034 16.302213,-5.2275 32.687961,-10.0153 49.434221,-13.2731 12.028818,2.1323 23.868586,5.267 35.321461,9.4789 0.56715,0.2066 1.20025,0.1055 1.67946,-0.2594 0.47483,-0.3693 0.72543,-0.954 0.67267,-1.552 -1.05516,-11.809 -1.20025,-23.6839 0,-35.44893 0.0923,-0.91448 -0.53637,-1.74981 -1.44205,-1.90808 -12.085975,-2.1367 -23.969709,-5.26261 -35.475344,-9.49644 -0.219824,-0.0791 -0.452839,-0.11871 -0.685853,-0.10991 -0.03078,0.004 -0.05716,0.0132 -0.08353,0.0176 -0.05715,-0.004 -0.109912,-0.0176 -0.167067,-0.0176 z" />
    <path
       id="path2419"
       sodipodi:nodetypes="cccccsccccscc"
       style="fill:#cd853f"
       d="m 106.02816,988.47206 c -0.16267,0.009 -0.32534,0.0352 -0.47921,0.0835 -16.363769,5.24942 -32.837446,10.04162 -49.65405,13.29944 -0.888093,0.1758 -1.499206,0.9936 -1.415672,1.8949 1.103521,11.7958 1.147486,23.6663 0,35.4489 -0.05716,0.5892 0.189049,1.1695 0.650681,1.5388 0.461633,0.3737 1.081539,0.4836 1.644291,0.3034 16.368161,-5.2495 32.824252,-10.0548 49.64086,-13.3126 0.88369,-0.1759 1.49481,-0.9848 1.41567,-1.8861 -1.10352,-11.7914 -1.14749,-23.6664 0,-35.44461 0.0484,-0.5012 -0.1231,-0.99801 -0.46603,-1.36731 -0.34732,-0.36931 -0.83094,-0.57155 -1.33654,-0.55836 z" />
    <path
       id="path2421"
       sodipodi:nodetypes="cscsccscsccc"
       style="fill:#cd853f"
       d="m 20.107408,992.23986 c -0.479218,0.0176 -0.932058,0.23302 -1.248606,0.59356 -0.316547,0.3605 -0.470425,0.8353 -0.430856,1.3145 1.055159,11.80898 1.200244,23.68398 0,35.44898 -0.09233,0.9145 0.536372,1.7454 1.446447,1.9081 12.081576,2.1323 23.978499,5.2758 35.484134,9.5052 0.562752,0.2066 1.191451,0.1055 1.666273,-0.255 0.474822,-0.3649 0.734215,-0.9453 0.685854,-1.5432 -1.05516,-11.809 -1.200244,-23.6839 0,-35.4445 0.09233,-0.9189 -0.536373,-1.7498 -1.442052,-1.9125 -12.085972,-2.13228 -23.969706,-5.27578 -35.47534,-9.50523 -0.219825,-0.0835 -0.45284,-0.1187 -0.685854,-0.10991 z" />
    <g
       transform="matrix(0.10488548,0,0,0.10488548,23.456432,937.77523)"
       id="g8123">
      <rect
         id="rect8056"
         style="fill:#2e3436;stroke:#000000;stroke-width:2;stroke-linecap:round;stroke-linejoin:round;stroke-dashoffset:19.74;filter:url(#filter8058)"
         ry="35.122002"
         height="457.14001"
         width="687.14001"
         y="186.64999"
         x="21.429001" />
      <rect
         id="rect5279"
         style="fill:#c4a000;stroke:#000000;stroke-width:2;stroke-linecap:round;stroke-linejoin:round;stroke-dashoffset:19.74"
         ry="35.122002"
         height="457.14001"
         width="687.14001"
         y="186.64999"
         x="21.429001" />
      <rect
         id="rect8064"
         style="fill:#2e3436;filter:url(#filter8119)"
         transform="matrix(0.81217518,0.58341364,-0.58341364,0.81217518,0,0)"
         ry="0"
         height="360.06"
         width="541.42999"
         y="-125.86"
         x="226" />
      <g
         id="g6424"
         transform="matrix(0.58178,-0.81335,0.81335,0.58178,165.91,-14.599)">
        <rect
           id="rect6366"
           style="fill:#eeeeec;stroke:#000000;stroke-width:2;stroke-linecap:round;stroke-linejoin:round;stroke-dashoffset:19.74"
           transform="matrix(0,1,-1,0,0,0)"
           ry="0"
           height="360.06"
           width="541.42999"
           y="-17.207001"
           x="99.773003" />
        <g
           id="g6407"
           transform="matrix(1,0,0,0.52631,-1.6683,57.53)">
          <path
             id="path6377"
             style="fill:none;stroke:#204a87;stroke-width:1.37839997px"
             d="M -317.97,156.15 H -5.83" />
          <path
             id="path6379"
             style="fill:none;stroke:#204a87;stroke-width:1.37839997px"
             d="M -317.97,121.95 H -5.83" />
          <path
             id="path6381"
             style="fill:none;stroke:#204a87;stroke-width:1.37839997px"
             d="M -317.97,190.35 H -5.83" />
          <path
             id="path6383"
             style="fill:none;stroke:#204a87;stroke-width:1.37839997px"
             d="M -317.97,224.55 H -5.83" />
          <path
             id="path6385"
             style="fill:none;stroke:#204a87;stroke-width:1.37839997px"
             d="M -317.97,258.75 H -5.83" />
          <path
             id="path6387"
             style="fill:none;stroke:#204a87;stroke-width:1.37839997px"
             d="M -317.97,327.16 H -5.83" />
          <path
             id="path6389"
             style="fill:none;stroke:#204a87;stroke-width:1.37839997px"
             d="M -317.97,361.36 H -5.83" />
          <path
             id="path6391"
             style="fill:none;stroke:#204a87;stroke-width:1.37839997px"
             d="M -317.97,395.56 H -5.83" />
          <path
             id="path6393"
             style="fill:none;stroke:#204a87;stroke-width:1.37839997px"
             d="M -317.97,429.76 H -5.83" />
          <path
             id="path6395"
             style="fill:none;stroke:#204a87;stroke-width:1.37839997px"
             d="M -317.97,463.96 H -5.83" />
          <path
             id="path6397"
             style="fill:none;stroke:#204a87;stroke-width:1.37839997px"
             d="M -317.97,498.16 H -5.83" />
          <path
             id="path6399"
             style="fill:none;stroke:#204a87;stroke-width:1.37839997px"
             d="M -317.97,532.36 H -5.83" />
          <path
             id="path6401"
             style="fill:none;stroke:#204a87;stroke-width:1.37839997px"
             d="M -317.97,566.56 H -5.83" />
          <path
             id="path6403"
             style="fill:none;stroke:#204a87;stroke-width:1.37839997px"
             d="M -317.97,600.76 H -5.83" />
          <path
             id="path6405"
             style="fill:none;stroke:#204a87;stroke-width:1.37839997px"
             d="M -317.97,292.95 H -5.83" />
        </g>
      </g>
      <path
         id="path7540"
         style="fill:#2e3436;stroke:#000000;stroke-width:2;stroke-linecap:round;stroke-linejoin:round;stroke-dashoffset:19.74;filter:url(#filter8052)"
         d="m 178.15,232.36 h 616.9 c 19.457,0 30.925,14.147 25.711,31.719 l -103.67,349.42 c -5.2136,17.573 -25.075,31.719 -44.533,31.719 h -616.9 c -19.457,0 -30.925,-14.147 -25.711,-31.719 l 103.67,-349.42 c 5.2136,-17.573 25.075,-31.719 44.533,-31.719 z" />
      <path
         id="rect5281"
         style="fill:#edd400;stroke:#000000;stroke-width:2;stroke-linecap:round;stroke-linejoin:round;stroke-dashoffset:19.74"
         d="m 178.15,232.36 h 616.9 c 19.457,0 30.925,14.147 25.711,31.719 l -103.67,349.42 c -5.2136,17.573 -25.075,31.719 -44.533,31.719 h -616.9 c -19.457,0 -30.925,-14.147 -25.711,-31.719 l 103.67,-349.42 c 5.2136,-17.573 25.075,-31.719 44.533,-31.719 z" />
    </g>
    <path
       id="path2423"
       sodipodi:nodetypes="cccccsccccscc"
       style="fill:url(#linearGradient4543)"
       d="m 104.49379,991.48806 c -0.14509,0.004 -0.29017,0.0264 -0.42646,0.0703 -14.495257,4.64712 -29.07844,8.88974 -43.973775,11.77824 -0.786973,0.1539 -1.327742,0.8793 -1.253002,1.6795 -0.60232,10.8373 -0.5012,21.3362 0,31.391 -0.04836,0.5231 0.167067,1.0331 0.575942,1.3629 0.408874,0.3297 0.958436,0.4308 1.45524,0.2682 14.495254,-4.6471 29.069644,-8.9029 43.960585,-11.7914 0.78257,-0.1539 1.32334,-0.8706 1.253,-1.6663 -0.97602,-10.4417 -1.01559,-20.9581 0,-31.39102 0.044,-0.44406 -0.10991,-0.88371 -0.41327,-1.20905 -0.30336,-0.32534 -0.73422,-0.5056 -1.17826,-0.49241 z" />
    <path
       id="path2425"
       sodipodi:nodetypes="cccsccscsccc"
       style="fill:#000000"
       d="m 106.25678,988.45887 c -0.13629,0.009 -0.26818,0.0352 -0.39568,0.0791 -16.328595,5.39891 -30.744712,9.94051 -47.416231,13.10163 -0.681457,0.1318 -1.235416,0.7122 -1.40688,1.4772 -0.171463,0.7606 0.07034,1.5607 0.619907,2.0312 7.698267,6.5463 9.764621,11.1539 14.121551,20.5184 0.378098,0.8134 1.209036,1.2091 1.99601,0.9497 16.30661,-5.3901 32.687963,-10.2835 49.359483,-13.4401 0.55396,-0.1056 1.02878,-0.5056 1.28377,-1.0728 0.255,-0.5671 0.255,-1.2354 -0.004,-1.7938 -4.2646,-9.1754 -9.58437,-16.24062 -17.16833,-21.5604 -0.29456,-0.21103 -0.63749,-0.31215 -0.98921,-0.29017 z" />
    <path
       id="path2427"
       sodipodi:nodetypes="cscsccscsccc"
       style="fill:url(#linearGradient4539)"
       d="m 20.107408,992.23986 c -0.479218,0.0176 -0.932058,0.23302 -1.248606,0.59356 -0.316547,0.3605 -0.470425,0.8353 -0.430856,1.3145 1.055159,11.80898 1.200244,23.68398 0,35.44898 -0.09233,0.9145 0.536372,1.7454 1.446447,1.9081 12.081576,2.1323 23.978499,5.2758 35.484134,9.5052 0.562752,0.2066 1.191451,0.1055 1.666273,-0.255 0.474822,-0.3649 0.734215,-0.9453 0.685854,-1.5432 -1.05516,-11.809 -1.200244,-23.6839 0,-35.4445 0.09233,-0.9189 -0.536373,-1.7498 -1.442052,-1.9125 -12.085972,-2.13228 -23.969706,-5.27578 -35.47534,-9.50523 -0.219825,-0.0835 -0.45284,-0.1187 -0.685854,-0.10991 z" />
    <path
       id="path2429"
       sodipodi:nodetypes="cccsccscsccc"
       style="fill:#b16c31"
       d="m 105.94903,988.47206 c -0.13629,0.0132 -0.27259,0.0396 -0.40008,0.0835 -16.381355,5.25382 -30.859022,9.69432 -47.675626,12.95654 -0.685854,0.1362 -1.231019,0.6726 -1.376104,1.3585 -0.145084,0.6858 0.131895,1.3937 0.70344,1.8025 8.063177,5.6539 10.33177,9.7251 15.10197,17.9817 0.413271,0.721 1.270588,1.0508 2.057561,0.8002 16.368161,-5.2494 32.824249,-10.0548 49.640859,-13.3126 0.55396,-0.1099 1.02878,-0.4792 1.26179,-0.9936 0.23741,-0.5144 0.21543,-1.1123 -0.066,-1.6048 -4.67347,-8.09392 -10.33616,-14.27542 -18.23227,-18.83457 -0.30776,-0.18025 -0.66387,-0.26379 -1.01559,-0.23741 z" />
    <path
       id="path2431"
       sodipodi:nodetypes="cscsccscsccc"
       style="fill:url(#linearGradient4535)"
       d="m 21.795663,994.53922 c -0.430857,0.018 -0.839731,0.2154 -1.125503,0.5408 -0.285773,0.3253 -0.426461,0.7562 -0.391289,1.1914 0.95404,10.69668 1.085935,21.45048 0,32.10768 -0.08353,0.8309 0.488012,1.5827 1.30576,1.7278 10.94728,1.9344 21.723096,4.779 32.147192,8.6127 0.509994,0.1847 1.077142,0.097 1.507999,-0.233 0.430857,-0.3297 0.663871,-0.8573 0.619906,-1.3981 -0.95404,-10.6967 -1.085935,-21.4505 0,-32.1076 0.08353,-0.8309 -0.483615,-1.5827 -1.30576,-1.7278 -10.947279,-1.9345 -21.709906,-4.77898 -32.134002,-8.61278 -0.197843,-0.075 -0.408875,-0.1099 -0.624303,-0.1011 z" />
    <path
       id="path2433"
       style="fill:url(#linearGradient4532)"
       d="m 104.28715,988.95568 c -15.721875,5.02964 -29.781875,9.30734 -45.974176,12.47282 0.09672,0.4529 0.369306,0.8749 0.769387,1.1563 7.878524,5.4473 10.300994,9.2942 15.374553,17.1332 0.439649,0.6814 1.248605,1.0068 1.952045,0.7825 14.583183,-4.6515 29.293861,-8.8765 44.457381,-11.6507 0.5056,-0.092 0.90129,-0.4265 1.07275,-0.9057 0.17586,-0.4792 0.10552,-1.0463 -0.19345,-1.5124 -4.77899,-7.38608 -10.25703,-13.11908 -17.45849,-17.47602 z" />
    <path
       id="path2435"
       sodipodi:nodetypes="cssscsccsccc"
       style="fill:#000000"
       d="m 19.45233,993.00482 c -0.298962,0 -0.575942,0.084 -0.804559,0.2286 -8.041195,5.0296 -10.8373675,13.47528 -13.6335401,20.90978 -0.2022389,0.532 -0.1011194,1.1958 0.2681864,1.7762 0.3693058,0.5803 0.962833,1.0068 1.5915322,1.1387 13.3081985,2.8093 18.9269235,4.99 32.3362415,10.1647 0.923264,0.3561 1.82015,0.035 2.119112,-0.7606 3.8909,-10.3362 7.166291,-14.825 13.36975,-20.2107 0.611113,-0.3781 0.817748,-1.1695 0.523183,-1.974 -0.294566,-0.809 -1.033177,-1.4597 -1.842133,-1.6268 -13.426904,-2.83128 -19.902945,-4.37888 -33.167179,-9.49638 -0.254997,-0.097 -0.509994,-0.1495 -0.760594,-0.1495 z" />
    <path
       id="path2437"
       sodipodi:nodetypes="cssscsccsccc"
       style="fill:#b16c31"
       d="m 20.107408,992.23986 c -0.281376,0.0132 -0.553959,0.0923 -0.800163,0.23302 -8.467654,4.88894 -12.481657,11.92772 -16.4692805,18.83462 -0.2901688,0.4968 -0.3165478,1.0991 -0.07474,1.6179 0.2418074,0.5231 0.7166292,0.8925 1.2837774,0.9936 11.9716631,2.1147 22.0924011,6.1067 33.7255341,10.3845 0.804559,0.299 1.701445,-0.026 2.132301,-0.7694 5.543984,-9.6063 8.784203,-13.761 17.159531,-18.5928 0.641889,-0.3693 0.980419,-1.1035 0.852922,-1.8333 -0.127499,-0.7254 -0.699044,-1.297 -1.428863,-1.4245 -12.081575,-2.13228 -24.189531,-5.10428 -35.695165,-9.33373 -0.219825,-0.0835 -0.45284,-0.1187 -0.685854,-0.10991 z" />
    <path
       id="path2439"
       sodipodi:nodetypes="cssscsccsccc"
       style="fill:url(#linearGradient4527)"
       d="m 20.507489,993.64672 c -0.254997,0.013 -0.501201,0.084 -0.721025,0.2111 -7.649907,4.4184 -11.2770173,10.77578 -14.8821455,17.01878 -0.2593934,0.444 -0.2813759,0.9936 -0.065947,1.4596 0.2154284,0.4705 0.6506817,0.8046 1.1562789,0.8969 10.8197806,1.9125 19.9600996,5.5176 30.4721266,9.3821 0.725422,0.2682 1.538773,-0.026 1.925666,-0.6946 5.012008,-8.6787 7.935679,-12.4333 15.502051,-16.799 0.580337,-0.3342 0.888092,-0.9936 0.769388,-1.6531 -0.114309,-0.6595 -0.633097,-1.1739 -1.292572,-1.2882 -10.912107,-1.93 -21.846197,-4.61188 -32.243915,-8.43248 -0.197842,-0.075 -0.408874,-0.1099 -0.619906,-0.1011 z" />
  </g>
</svg>
